<?xml version="1.0" encoding="UTF-8"?>
<svg width="48px" height="48px" viewBox="0 0 48 48" version="1.1" xmlns="http://www.w3.org/2000/svg" xmlns:xlink="http://www.w3.org/1999/xlink" style="background: #FFFFFF;">
    <!-- Generator: Sketch 51.3 (57544) - http://www.bohemiancoding.com/sketch -->
    <title>cancel</title>
    <desc>Created with Sketch.</desc>
    <defs></defs>
    <g id="Page-1" stroke="none" stroke-width="1" fill="none" fill-rule="evenodd">
        <g id="Artboard" transform="translate(-2340.000000, -83.000000)" fill="#FFFFFF">
            <path d="M2364,105.585786 L2358.70711,100.292893 C2358.31658,99.9023689 2357.68342,99.9023689 2357.29289,100.292893 C2356.90237,100.683418 2356.90237,101.316582 2357.29289,101.707107 L2362.58579,107 L2357.29289,112.292893 C2356.90237,112.683418 2356.90237,113.316582 2357.29289,113.707107 C2357.68342,114.097631 2358.31658,114.097631 2358.70711,113.707107 L2364,108.414214 L2369.29289,113.707107 C2369.68342,114.097631 2370.31658,114.097631 2370.70711,113.707107 C2371.09763,113.316582 2371.09763,112.683418 2370.70711,112.292893 L2365.41421,107 L2370.70711,101.707107 C2371.09763,101.316582 2371.09763,100.683418 2370.70711,100.292893 C2370.31658,99.9023689 2369.68342,99.9023689 2369.29289,100.292893 L2364,105.585786 Z M2364,131 C2350.74517,131 2340,120.254834 2340,107 C2340,93.745166 2350.74517,83 2364,83 C2377.25483,83 2388,93.745166 2388,107 C2388,120.254834 2377.25483,131 2364,131 Z" id="Combined-Shape"></path>
        </g>
    </g>
</svg>