<?xml version="1.0" encoding="UTF-8"?>
<svg width="24px" height="24px" viewBox="0 0 24 24" version="1.1" xmlns="http://www.w3.org/2000/svg" xmlns:xlink="http://www.w3.org/1999/xlink" style="background: #FFFFFF;">
    <!-- Generator: Sketch 51.3 (57544) - http://www.bohemiancoding.com/sketch -->
    <title>delete</title>
    <desc>Created with Sketch.</desc>
    <defs>
        <rect id="path-1" x="0" y="0" width="24" height="24"></rect>
    </defs>
    <g id="Page-1" stroke="none" stroke-width="1" fill="none" fill-rule="evenodd">
        <g id="Artboard" transform="translate(-2444.000000, -100.000000)">
            <g id="icon-cancel" transform="translate(2444.000000, 100.000000)">
                <mask id="mask-2" fill="white">
                    <use xlink:href="#path-1"></use>
                </mask>
                <g id="Mask"></g>
                <g mask="url(#mask-2)" fill="#FFFFFF" fill-rule="nonzero">
                    <g transform="translate(5.000000, 5.000000)">
                        <path d="M0.292893219,1.70710678 C-0.0976310729,1.31658249 -0.0976310729,0.683417511 0.292893219,0.292893219 C0.683417511,-0.0976310729 1.31658249,-0.0976310729 1.70710678,0.292893219 L13.7071068,12.2928932 C14.0976311,12.6834175 14.0976311,13.3165825 13.7071068,13.7071068 C13.3165825,14.0976311 12.6834175,14.0976311 12.2928932,13.7071068 L0.292893219,1.70710678 Z" id="Line_22"></path>
                        <path d="M0.292893219,1.70710678 C-0.0976310729,1.31658249 -0.0976310729,0.683417511 0.292893219,0.292893219 C0.683417511,-0.0976310729 1.31658249,-0.0976310729 1.70710678,0.292893219 L13.7071068,12.2928932 C14.0976311,12.6834175 14.0976311,13.3165825 13.7071068,13.7071068 C13.3165825,14.0976311 12.6834175,14.0976311 12.2928932,13.7071068 L0.292893219,1.70710678 Z" id="Line_23" transform="translate(7.000000, 7.000000) rotate(90.000000) translate(-7.000000, -7.000000) "></path>
                    </g>
                </g>
            </g>
        </g>
    </g>
</svg>