<?xml version="1.0" encoding="UTF-8"?>
<svg width="24px" height="24px" viewBox="0 0 24 24" version="1.1" xmlns="http://www.w3.org/2000/svg" xmlns:xlink="http://www.w3.org/1999/xlink" style="background: #FFFFFF;">
    <!-- Generator: Sketch 51.3 (57544) - http://www.bohemiancoding.com/sketch -->
    <title>edit</title>
    <desc>Created with Sketch.</desc>
    <defs>
        <rect id="path-1" x="0" y="0" width="24" height="24"></rect>
    </defs>
    <g id="Page-1" stroke="none" stroke-width="1" fill="none" fill-rule="evenodd">
        <g id="Artboard" transform="translate(-2480.000000, -98.000000)">
            <g id="Path_30" transform="translate(2480.000000, 98.000000)">
                <mask id="mask-2" fill="white">
                    <use xlink:href="#path-1"></use>
                </mask>
                <use id="Mask" fill-opacity="0" fill="#FFFFFF" fill-rule="nonzero" xlink:href="#path-1"></use>
                <path d="M4.017,16.025 L4,19.325 C3.99722303,19.5137574 4.06910329,19.6959738 4.2,19.832 C4.32942927,19.9623926 4.50629508,20.0345827 4.69,20.032 L7.971,20.015 C8.15470492,20.0175827 8.33157073,19.9453926 8.461,19.815 L19.8,8.482 C20.0718643,8.20409933 20.0718643,7.75990067 19.8,7.482 L16.55,4.2 C16.2720993,3.92813567 15.8279007,3.92813567 15.55,4.2 L13.285,6.486 L4.22,15.535 C4.09623935,15.6687527 4.02518036,15.8428472 4.02,16.025 L4.017,16.025 Z M16.059,5.691 L18.342,7.974 L17.057,9.26 L14.774,6.977 L16.059,5.692 L16.059,5.691 Z" fill="#FFFFFF" fill-rule="nonzero" mask="url(#mask-2)"></path>
            </g>
        </g>
    </g>
</svg>