<?xml version="1.0" encoding="UTF-8"?>
<svg width="48px" height="48px" viewBox="0 0 48 48" version="1.1" xmlns="http://www.w3.org/2000/svg" xmlns:xlink="http://www.w3.org/1999/xlink" style="background: #FFFFFF;">
    <!-- Generator: Sketch 51.3 (57544) - http://www.bohemiancoding.com/sketch -->
    <title>ringtones</title>
    <desc>Created with Sketch.</desc>
    <defs></defs>
    <g id="Page-1" stroke="none" stroke-width="1" fill="none" fill-rule="evenodd">
        <g id="Artboard" transform="translate(-2286.000000, -83.000000)" fill="#FFFFFF">
            <path d="M2310,131 C2296.74517,131 2286,120.254834 2286,107 C2286,93.745166 2296.74517,83 2310,83 C2323.25483,83 2334,93.745166 2334,107 C2334,120.254834 2323.25483,131 2310,131 Z M2315,103 C2315,106.225246 2315.60203,108.733725 2316.6221,110.603852 C2316.69761,110.742284 2316.77356,110.874285 2316.84962,111 L2303.15038,111 C2303.22644,110.874285 2303.30239,110.742284 2303.3779,110.603852 C2304.39797,108.733725 2305,106.225246 2305,103 C2305,100.238576 2307.23858,98 2310,98 C2312.76142,98 2315,100.238576 2315,103 Z M2317,103 C2317,99.1340068 2313.86599,96 2310,96 C2306.13401,96 2303,99.1340068 2303,103 C2303,105.899754 2302.47703,108.078775 2301.6221,109.646148 C2301.33585,110.170951 2301.03553,110.581381 2300.7428,110.89038 C2300.58468,111.05728 2300.47819,111.146022 2300.4453,111.16795 C2299.62206,111.716774 2300.01059,113 2301,113 L2319,113 C2319.98941,113 2320.37794,111.716774 2319.5547,111.16795 C2319.52181,111.146022 2319.41532,111.05728 2319.2572,110.89038 C2318.96447,110.581381 2318.66415,110.170951 2318.3779,109.646148 C2317.52297,108.078775 2317,105.899754 2317,103 Z M2310.865,115.498228 C2310.6861,115.80663 2310.35653,115.996456 2310,115.996456 C2309.64347,115.996456 2309.3139,115.80663 2309.135,115.498228 C2308.85788,115.020502 2308.24595,114.857879 2307.76823,115.135 C2307.2905,115.412121 2307.12788,116.024046 2307.405,116.501772 C2307.9417,117.426978 2308.9304,117.996456 2310,117.996456 C2311.0696,117.996456 2312.0583,117.426978 2312.595,116.501772 C2312.87212,116.024046 2312.7095,115.412121 2312.23177,115.135 C2311.75405,114.857879 2311.14212,115.020502 2310.865,115.498228 Z" id="Combined-Shape"></path>
        </g>
    </g>
</svg>