<?xml version="1.0" encoding="UTF-8"?>
<svg width="80px" height="80px" viewBox="0 0 80 80" version="1.1" xmlns="http://www.w3.org/2000/svg" xmlns:xlink="http://www.w3.org/1999/xlink" style="background: #FFFFFF;">
    <!-- Generator: Sketch 51.3 (57544) - http://www.bohemiancoding.com/sketch -->
    <title>todos</title>
    <desc>Created with Sketch.</desc>
    <defs>
        <rect id="path-1" x="0" y="0" width="80" height="80"></rect>
        <linearGradient x1="50%" y1="0%" x2="50%" y2="100%" id="linearGradient-3">
            <stop stop-color="#F9BA7E" offset="0%"></stop>
            <stop stop-color="#F08448" offset="100%"></stop>
        </linearGradient>
        <linearGradient x1="50%" y1="0%" x2="50%" y2="100%" id="linearGradient-4">
            <stop stop-color="#A5C699" offset="0%"></stop>
            <stop stop-color="#6C9460" offset="100%"></stop>
        </linearGradient>
    </defs>
    <g id="Page-1" stroke="none" stroke-width="1" fill="none" fill-rule="evenodd">
        <g id="Artboard" transform="translate(-2050.000000, -199.000000)">
            <g id="todolist" transform="translate(2050.000000, 199.000000)">
                <mask id="mask-2" fill="white">
                    <use xlink:href="#path-1"></use>
                </mask>
                <g id="Rectangle-path"></g>
                <g id="icon-list" mask="url(#mask-2)">
                    <g transform="translate(25.000000, 28.000000)" id="Group_210">
                        <g>
                            <polygon id="Path" fill="url(#linearGradient-3)" fill-rule="nonzero" points="8 0 30 0 30 4 8 4"></polygon>
                            <polygon id="Path-2" fill="url(#linearGradient-3)" fill-rule="nonzero" points="8 10 30 10 30 14 8 14"></polygon>
                            <polygon id="Path-3" fill="url(#linearGradient-3)" fill-rule="nonzero" points="8 20 30 20 30 24 8 24"></polygon>
                            <polygon id="Path-4" fill="url(#linearGradient-4)" fill-rule="nonzero" points="0 0 4 0 4 4 0 4"></polygon>
                            <polygon id="Path-5" fill="url(#linearGradient-4)" fill-rule="nonzero" points="0 10 4 10 4 14 0 14"></polygon>
                            <polygon id="Path-6" fill="url(#linearGradient-4)" fill-rule="nonzero" points="0 20 4 20 4 24 0 24"></polygon>
                            <polygon id="Path-7" fill="url(#linearGradient-4)" fill-rule="nonzero" points="26 0 30 0 30 4 26 4"></polygon>
                            <polygon id="Path-8" fill="url(#linearGradient-4)" fill-rule="nonzero" points="26 10 30 10 30 14 26 14"></polygon>
                            <polygon id="Path-9" fill="url(#linearGradient-4)" fill-rule="nonzero" points="26 20 30 20 30 24 26 24"></polygon>
                        </g>
                    </g>
                </g>
            </g>
        </g>
    </g>
</svg>